G04*
G04 #@! TF.GenerationSoftware,Altium Limited,Altium Designer,18.0.12 (696)*
G04*
G04 Layer_Physical_Order=1*
G04 Layer_Color=255*
%FSLAX25Y25*%
%MOIN*%
G70*
G01*
G75*
%ADD13R,0.01968X0.01575*%
%ADD14R,0.03150X0.03543*%
%ADD15R,0.02559X0.06693*%
%ADD23C,0.01968*%
%ADD24C,0.09843*%
%ADD25C,0.05906*%
%ADD26C,0.07874*%
%ADD27C,0.05000*%
D13*
X159551Y15791D02*
D03*
X168213D02*
D03*
D14*
X159787Y29890D02*
D03*
X167268D02*
D03*
X163528Y37764D02*
D03*
D15*
X169571Y58055D02*
D03*
X158744D02*
D03*
D23*
X156638Y15791D02*
X159551D01*
X154965Y11374D02*
Y14118D01*
X156638Y15791D01*
X163528Y19768D02*
Y37764D01*
X159551Y15791D02*
X163528Y19768D01*
X168213Y15791D02*
X169980Y14024D01*
Y5709D02*
Y14024D01*
X173098Y29890D02*
X177165Y33957D01*
Y55118D01*
X169571Y52740D02*
Y58055D01*
X165059Y48228D02*
X169571Y52740D01*
X158744Y64453D02*
X164173Y69882D01*
X187598D01*
X167268Y29890D02*
X173098D01*
X158744Y58055D02*
Y64453D01*
X169484Y6205D02*
X169980Y5709D01*
X159843Y48228D02*
X165059D01*
X155905Y44291D02*
X159843Y48228D01*
X155905Y32972D02*
Y44291D01*
Y32972D02*
X158988Y29890D01*
X159787D01*
D24*
X135429Y16492D02*
D03*
X142909Y40114D02*
D03*
X87004Y63736D02*
D03*
X135035D02*
D03*
X87398Y16492D02*
D03*
D25*
X187343Y48724D02*
D03*
Y38721D02*
D03*
Y28717D02*
D03*
D26*
X22925Y19244D02*
D03*
Y38929D02*
D03*
Y58614D02*
D03*
D27*
X177165Y55118D02*
D03*
X187598Y69882D02*
D03*
X169980Y5709D02*
D03*
X154965Y11374D02*
D03*
M02*
